<svg xmlns="http://www.w3.org/2000/svg" xmlns:xlink="http://www.w3.org/1999/xlink" width="3356.107" height="2263.07" viewBox="0 0 3356.107 2263.07">
  <defs>
    <linearGradient id="linear-gradient" x1="-2.359" y1="0.133" x2="-2.359" y2="0.132" gradientUnits="objectBoundingBox">
      <stop offset="0" stop-color="#5a7482"/>
      <stop offset="1" stop-color="#243647"/>
    </linearGradient>
    <linearGradient id="linear-gradient-2" x1="-31.545" y1="-0.16" x2="-31.545" y2="-0.21" gradientUnits="objectBoundingBox">
      <stop offset="0" stop-color="#72a5a4"/>
      <stop offset="0.263" stop-color="#e3e8e7"/>
      <stop offset="0.553" stop-color="#5d9997"/>
      <stop offset="0.599" stop-color="#619b99"/>
      <stop offset="0.644" stop-color="#6da2a1"/>
      <stop offset="0.689" stop-color="#81aeac"/>
      <stop offset="0.735" stop-color="#9dbfbd"/>
      <stop offset="0.78" stop-color="#c1d4d3"/>
      <stop offset="0.816" stop-color="#e3e8e7"/>
      <stop offset="1" stop-color="#6aa09f"/>
    </linearGradient>
    <linearGradient id="linear-gradient-3" x1="-50.263" y1="-1.578" x2="-50.222" y2="-1.58" gradientUnits="objectBoundingBox">
      <stop offset="0" stop-color="#90bfb5"/>
      <stop offset="0.109" stop-color="#87b4aa"/>
      <stop offset="0.303" stop-color="#70958d"/>
      <stop offset="0.559" stop-color="#4b645e"/>
      <stop offset="0.865" stop-color="#18201e"/>
      <stop offset="1"/>
    </linearGradient>
    <linearGradient id="linear-gradient-4" x1="-27.749" y1="-5.775" x2="-27.749" y2="-5.825" xlink:href="#linear-gradient-2"/>
    <linearGradient id="linear-gradient-5" x1="-44.244" y1="-11.281" x2="-44.203" y2="-11.283" xlink:href="#linear-gradient-3"/>
    <linearGradient id="linear-gradient-6" x1="-48.964" y1="-46.94" x2="-48.909" y2="-46.94" gradientUnits="objectBoundingBox">
      <stop offset="0.017" stop-color="#1d4654"/>
      <stop offset="0.263" stop-color="#d0f2eb"/>
      <stop offset="0.559" stop-color="#1d4654"/>
    </linearGradient>
    <linearGradient id="linear-gradient-7" x1="-67.92" y1="-12.655" x2="-67.672" y2="-12.655" xlink:href="#linear-gradient-6"/>
    <linearGradient id="linear-gradient-8" x1="-53.456" y1="-6.775" x2="-53.454" y2="-6.796" gradientUnits="objectBoundingBox">
      <stop offset="0" stop-color="#88b5ab"/>
      <stop offset="0.114" stop-color="#7faaa0"/>
      <stop offset="0.316" stop-color="#698b83"/>
      <stop offset="0.583" stop-color="#435a55"/>
      <stop offset="0.903" stop-color="#111615"/>
      <stop offset="1"/>
    </linearGradient>
    <linearGradient id="linear-gradient-9" x1="-32.465" y1="-9.526" x2="-32.466" y2="-9.597" xlink:href="#linear-gradient-8"/>
    <linearGradient id="linear-gradient-10" x1="-3.969" y1="1.908" x2="-3.969" y2="1.907" gradientUnits="objectBoundingBox">
      <stop offset="0" stop-color="#d8db3b"/>
      <stop offset="0.5" stop-color="#909911"/>
      <stop offset="1" stop-color="#5b7a0a"/>
    </linearGradient>
    <linearGradient id="linear-gradient-11" x1="-3.842" y1="1.895" x2="-3.842" y2="1.894" xlink:href="#linear-gradient-10"/>
    <linearGradient id="linear-gradient-12" x1="-5.597" y1="1.08" x2="-5.597" y2="1.078" xlink:href="#linear-gradient-10"/>
    <linearGradient id="linear-gradient-13" x1="-5.957" y1="1.078" x2="-5.958" y2="1.076" xlink:href="#linear-gradient-10"/>
    <linearGradient id="linear-gradient-14" x1="-1.424" y1="3.31" x2="-1.424" y2="3.288" xlink:href="#linear-gradient-10"/>
    <linearGradient id="linear-gradient-15" x1="-1.413" y1="4.192" x2="-1.413" y2="4.173" xlink:href="#linear-gradient-10"/>
  </defs>
  <g id="Group_1094" transform="translate(-12170.542 -4504)">
    <g id="Group_1048" transform="translate(12170.542 5013.346)">
      <path id="Path_2442" d="M884.3,438.2C796.4,583.3,702.7,716.1,602.5,835.1,391.8,712.2,192.4,568.6.8,414.8,104.9,301.5,220.8,173,339.5,23.9,523.5,179.3,705.3,319,884.3,438.2Z" opacity="0.25"/>
      <path id="Path_2443" d="M883.5,414.3C795.6,559.3,702,692.2,601.7,811.2Q278.75,648.45,0,390.9C104.2,277.6,220.1,149.1,338.7,0,522.7,155.5,704.5,295.2,883.5,414.3Z" fill="#fff"/>
      <g id="Group_1047" transform="translate(64.185 71.16)">
        <path id="Path_2444" d="M3.4,313.1l7.7-7.1,9.6-5.8,3.8-9.2,15.9.5,7.2-10.2.8-13.2,4.5-7.4,12.9-2.1,8.8-8.5-.5-13.3,10.8-3,9.8-6.3,3.7-11.6,1.8-10.8,11.4-3.2,4.4-9.7,13.7-2.2,2-12.7,19-10.3,7.5-8.5-.6-14.3,6.3-6.7,7.7-6.7,7-6.9,12.1-3.9,4.3-12.2,1-10.3,14.6-.1,7.1-10,3.8-9.2,10-5.2,3.1-10.9,10.6-4.6L247.7,45l5.6-8.1,4.8-9,8.9-5L293.3,4.4,290.4,0,264.3,18.3,254.4,24,249,34l-6.1,9.2-2.1,10.4-10.3,4.5-3.2,11.1-9.6,5-4.5,10.7-5.1,7.2-16.5.1-1.4,14.6-3.2,8.9-10.8,3.5-7.8,7.7-7.7,6.8-7.9,8.5.6,14.4-5.9,6.5-20.1,10.8-1.8,11.6-12.8,2-4.5,10L95.9,201l-2.2,13.6-3,9.5-8,5.1-13.6,3.7.5,15-6,5.9L49.9,256l-6.3,10.5-.9,13-4.8,6.8-16.6-.5-4.6,11L8.1,302,0,309.4Z" fill="#7697a3"/>
        <path id="Path_2445" d="M62.9,362.9l19.8.9-3.8-18.4,6.4-5.8L96,334.3l7.2-8.5,3.5-8.7,14.8-1.4.7-13.7,10-4,11.3-18.7,6.7-7.9,4.3-8.1,15-1.6V248.1l14-1.4.9-13.9,8.3-5.9,7.1-20.4,12.1-2.4,11.1-5.3,4.5-11.6.2-11.8,12.9-1.6,5-9.5,12.8-3.8L256.8,146l15.4-.4-2.7-15.9,15.8.4-.7-14.7,12.9-2.2,1.3-12.9,10.7-3.2,7.8-9,3.8-10.4,4.4-8.4,10-5.8.4-12.2,13.3.1.1-5.1L331,46.1l-.5,14.3-8.9,5.1-5.3,10-3.7,10.2-6.1,6.8L294,96.4l-1.3,12.4L279.2,111l.6,13.8-16.5-.4,2.7,16.2-15,.4,1.8,15.8-10.7,3.1-4.9,9.1-14.7,1.8-.1,15.4-3.4,8.9-8.9,4.3-14,2.7-4,11.9-3.5,9.6-9,6.3-.7,12-14.3,1.4-.1,13.7-13.1,1.3-5.6,10.3-6.5,7.7-10.6,17.6-11.5,4.5-.6,12.6-13.5,1.3-4.5,11.1-6.2,7.1-10.3,5-8.8,7.9,3,15L63,357.8Z" fill="#7697a3"/>
        <path id="Path_2446" d="M125.9,412.8l12.5-4,7.7-8.2,7.4-8.9,1.3-12.6,7.8-7.4,4.2-9.6,7.4-5.8,15.4-2.4-.8-15.8,6.3-6.5,10.4-5.3,5.8-9,9.6-5.7,6.4-10.3,2.5-10,12.5-3,4.2-12.1,5.2-8.9,4.2-9.3,10.4-4.7,8.2-6.8,7.4-7,13.9-3.7-2.3-17,4.5-7.2,15-1,5.9-10.6,7.1-8.5-.5-12.5,17.9,1.4L342.1,164l8.8-5.5,6.4-7.6,11.2-5.2,2.4-11.5,12.1-3.1,5.3-10.8,4.1-9.6,10.4-5.9L402,89l-5.1.3.8,13.1-9.1,5.2-4.8,10.9-4.2,8.6-12.9,3.3-2.5,12.1-10.3,4.9-6.5,7.8-10.5,6.3,1.1,13.6-17.6-1.4L321,190l-6.1,7.4-4.8,8.5-14.9,1-6.8,10.9,1.9,14.4-10.8,2.9-8.2,7.7-7.8,6.5-11.3,4.9-4.9,11-5.3,9.1-3.4,9.8-12.9,3.1-3.1,12.6-5.3,8.1-9.8,6.2-5.4,8.4-10.3,5.4-8.1,8.5.7,13.3-12.2,1.8-9.5,7.4-4.5,10.3-8.2,7.4-1.3,13-6.3,7.5-6.7,7.1-11.2,3.6Z" fill="#7697a3"/>
        <path id="Path_2447" d="M194.6,464.4l.9-12.6,3.8-8.3,14.2-1.8L219,430l2.3-10.8,8.2-5.5,10.8-4.9,6.3-8.7,9.2-5.4,9.7-6.7,7.3-8.9-.4-13.3,10.3-3.8,10-7.1-.7-15.1,4.6-7.5,12.1-3.2,10.3-6.3,6.7-8.9,1.9-11.5,9.6-4.9,6.6-9.9,1.3-12.3,7.3-5.3,15-1.7,4.7-10.7,10.3-6-2.3-16.1,7.1-7.4,3.8-8.9,14.2-1.8,4.4-11.3,7.7-7.6,2.2-10.7,13.5-1.6,7.9-9.3,1.8-11.7,10-5.3,2.3-11.4,11.7-2-.9-5-15.1,2.7-2.4,12.3-10.1,5.3-2,12.8-5.7,6.7-15.2,1.6-2.6,12.9-7.4,7.8-3.5,9-14.1,1.8L383,225.5l-8.1,8,2.2,15.3-8.8,5.2-4.2,9.5-13.6,1.6-10.1,7.5-1.3,13.2-5.3,7.8-10.6,5.6L321.1,312l-5.6,7.5-8.9,5.3-13.2,3.3L287,338.8l.6,13.8-7.5,5.3-12.8,4.7.5,15.1-5.9,7.1-8.8,5.9L242.9,397l-5.8,8.1-10,4.6-10.3,6.8L214.1,429l-3.9,8.4L196,439.2l-5.5,12.1-1,13.1Z" fill="#7697a3"/>
        <path id="Path_2448" d="M247.3,509.1l10-6.4,3.8-9.4h16.1l7.1-10.5.7-13.2,4.5-7.7,13-2.4,8.8-8.9-.6-13.4,10.8-3.4,9.9-6.6,3.6-11.8,1.6-11,11.5-3.5,4.3-10,13.9-2.6,1.8-12.9,19.1-11,7.5-8.8-.9-14.4,6.3-7,7.6-7.1,7.1-7.2,12.1-4.2,4.2-12.5.9-10.5,14.7-.5,7-10.3,3.8-9.4,10-5.6,3-11.1,10.7-4.9,2.4-12.7,5.6-8.3,4.8-9.2,8.9-5.4,26.3-19.4-3-4.1L500,211l-9.9,6-5.3,10.2-6.1,9.5-2,10.6-10.3,4.9-3.1,11.3-9.6,5.3-4.4,10.9-5.1,7.4-16.7.5-1.3,14.7-3.1,9.2-10.9,3.8-7.8,7.9-7.7,7.1-7.9,8.8.9,14.5-6,6.8-20.2,11.5-1.6,11.7L349,386l-4.5,10.3-12.4,3.8L330,413.9l-2.9,9.8-8.1,5.4-13.6,4,.7,15.2-6.1,6.2L286.3,457,280,467.8l-.7,13.1-4.8,7.1H257.7l-4.5,11.1-8.6,5.6Z" fill="#7697a3"/>
      </g>
      <path id="Path_2449" d="M449.8,552.7l24.1-16.8,9.4-11.3,1.1-17,8.5-9.8,9.6-9.6,9.1-9.9,13.9-7,6.1-14.6,2.7-13.7,17.1-3.1,8.5-12.1,6-12.6,12-8.1,4.9-13.6,12.6-7.6,4.3-15,7.6-11,6.8-11.9,11-8,32.2-27.3-3.3-3.8L621.9,336l-12,9L603,357.2l-8.2,11.9L591,382.5,578.5,390l-5,13.8-11.8,8.1-6.3,13.5-7.1,10.1-18.4,3.4-3.4,16.8-5.1,12.1-13.5,6.8-9.3,10.2-9.7,9.7-9.7,11.3-1,17-8.2,9.7-23.3,16.2Z" fill="#7697a3"/>
    </g>
    <g id="Group_1049" transform="translate(13599.925 5278.056)">
      <path id="Path_2450" d="M92.7,365.8,391.5,304c-31.8-81.7-56.1-164-71.3-247.2l12.5-25.9L83.9,58.9Z" opacity="0.25"/>
      <path id="Path_2451" d="M0,77.5c12.1,95.9,34.6,192.4,67.2,282.7,85.2-1.3,219.6-29.9,299.9-65.9-27.4-64.1-50.7-160.8-57.7-239.7-.1-1.6-.3-3.2-.4-4.9,0-.2.1-.3.1-.5,1.6-17.5,2.5-33.7,5.2-49.2-102,16.3-212,31.8-312.1,33.6C1.9,48.8,1.3,62.7,0,77.5Z" fill="#d3de16"/>
      <path id="Path_2452" d="M309.4,54.6c-.1-1.6-.3-3.2-.4-4.9,0-.2.1-.3.1-.5L4.7,76.6Z" opacity="0.25"/>
    </g>
    <g id="Group_1051" transform="translate(14310.345 5971.47)">
      <path id="Path_2453" d="M0,366.5C69,521.5,145.5,665,230,795.6,454.5,700,670.2,582.4,879.5,453.8,790.4,328.4,691.4,186.5,592.3,23.6,390.4,154.9,192.6,270.8,0,366.5Z" opacity="0.25"/>
      <path id="Path_2454" d="M3.8,342.9c69,154.9,145.5,298.4,230,429.1C461,691.3,677.3,576.8,883.3,430.2,794.2,304.8,695.1,162.9,596.1,0,394.1,131.3,196.3,247.2,3.8,342.9Z" fill="#dfeef4"/>
      <g id="Group_1050" transform="translate(310.03 68.652)">
        <path id="Path_2455" d="M507,346.6l-6.7-8-8.8-7-2.7-9.6L473,320.5l-5.9-11,.8-13.2-3.5-7.9-12.5-3.7-7.7-9.6,2.1-13.2L436,257.6l-9-7.5-2.2-12-.4-11-11-4.6-3.1-10.1L397,208.5l-.4-12.9L379,183l-6.5-9.4,2.5-14.1-5.4-7.4-6.7-7.7-6.1-7.8-11.5-5.3-2.7-12.7.2-10.3-14.4-1.9-5.7-10.8L320,86l-9.2-6.4L309,68.3l-10-5.9-.9-12.7L293.6,41l-3.7-9.5-8.1-6.1L258,3.8,261.4,0,285,21.5l9.1,6.8,4.1,10.6,4.9,10,.8,10.6,9.7,5.7,1.8,11.4,8.9,6.2,3.1,11.1,4.2,7.8,16.5,2.1-.4,14.7,2,9.3,10.3,4.8,6.8,8.6,6.7,7.7,6.8,9.5-2.4,14.2,5,7.2L401.6,193l.3,11.7,12.5,3.6,3.2,10.5,11.8,5,.5,13.8,1.8,9.9,7.3,6,13,5.3-2.4,14.9,5.3,6.6,13.3,3.8,5,11.2-.8,13,3.8,7.4,16.6,1.6,3.2,11.4,7.8,6.3,7.1,8.3Z" fill="#7697a3"/>
        <path id="Path_2456" d="M441.8,388.5,422,386.9l6-17.9-5.6-6.5-9.9-6.6-6.2-9.3-2.4-9.1-14.5-3.3,1.1-13.6-9.5-5.3-8.9-19.9-5.7-8.8-3.3-8.6-14.7-3.4,1.7-13.6-13.7-3.1.9-13.9-7.5-6.9L325.3,216l-11.7-3.8-10.3-6.7-3-12,1.3-11.8-12.5-3.2-3.8-10.1-12.2-5.3,3.4-14.2-15.2-2.4,4.7-15.4-15.8-1.6,2.6-14.6-12.5-3.7.4-12.9-10.2-4.5-6.7-10-2.5-10.7L218,64.2l-9.2-7L209.9,45l-13.2-1.6.6-5.1,18.2,2.3-1.3,14.3,8.1,6.1,3.9,10.7,2.4,10.6,5.3,7.5,12,5.4-.4,12.4,13.2,3.9-2.4,13.6,16.5,1.7L268,142.6l14.9,2.3-3.8,15.4,10.3,4.5,3.7,9.6,14.3,3.6-1.8,15.2,2.3,9.2,8.3,5.3,13.6,4.4,2.5,12.4,2.3,10,8.1,7.5-.7,12,13.9,3.1-1.6,13.6,12.9,3,4.2,11,5.6,8.4,8.3,18.7,10.8,6-.9,12.5,13.2,3.1,3.1,11.6,5.3,7.8,9.6,6.3,7.8,9-4.9,14.4,13.4,1.1Z" fill="#7697a3"/>
        <path id="Path_2457" d="M373,430l-11.8-5.5-6.7-9.1-6.3-9.7.3-12.7-6.8-8.3-3-10L332,368l-15-4.2,2.7-15.5-5.4-7.2-9.6-6.6-4.7-9.7-8.7-6.9L286.1,307l-1.2-10.3-12.1-4.5-2.7-12.5-4-9.4-3.1-9.8-9.7-6-7.3-7.8-6.5-7.8-13.3-5.5,4.4-16.5-3.5-7.7-14.7-3L207.9,195l-6-9.2,2.1-12.4-18-.9,3.4-16.1-8.1-6.6-5.4-8.4L165.4,135l-.9-11.8-11.6-4.5L149,107.3l-2.9-10-9.5-7.1,2.9-16,5,.9L142.1,88l8.3,6.3,3.4,11.4,3.1,9,12.4,4.9.9,12.4,9.6,6.2,5.5,8.5,9.6,7.6-2.8,13.3,17.7.9-2.7,16.1,5.2,8.1,3.8,9.1,14.6,2.8,5.4,11.8-3.7,14,10.3,4.2,7.1,8.6,7,7.4,10.6,6.3,3.5,11.4,4.1,9.6,2.2,10.3,12.4,4.5,1.5,12.9,4.2,8.6,8.9,7.4,4.4,9,9.4,6.7,7,9.3-2.3,13.2,11.8,3.4,8.5,8.5,3.2,10.7,7.2,8.5-.3,13.1,5.3,8.2,5.8,7.9,10.7,5Z" fill="#7697a3"/>
        <path id="Path_2458" d="M298.5,472.7l.6-12.6-2.8-8.7-13.9-3.6-3.9-12.3-.9-11-7.5-6.4L260,411.8l-5.1-9.5-8.4-6.5-8.8-7.8-6.2-9.7,2-13.2-9.6-5.1-9.1-8.3,2.6-14.8-3.6-8.1L202,324.2l-9.4-7.6-5.6-9.7-.4-11.7-8.8-6.1-5.4-10.6.3-12.3-6.5-6.3-14.8-3.5-3.2-11.2-9.5-7.3,4.2-15.8-6.1-8.1-2.7-9.2-13.8-3.6-3-11.7-6.7-8.5-.8-11-13.2-3.2-6.7-10.2-.3-11.8-9.2-6.5-.9-11.5-11.3-3.5,1.5-4.9L84.4,123l.9,12.5,9.3,6.5.4,12.9,4.8,7.4,14.9,3.5.9,13.1,6.5,8.7,2.4,9.3,13.7,3.5,3.3,11.6,7,8.9-4,14.9,8.1,6.3,2.9,10,13.2,3.1,9.1,8.8-.3,13.2,4.2,8.3,9.9,6.8.5,13,4.6,8.1,8.1,6.3,12.7,4.9,5.1,11.4-2.3,13.6,6.7,6.2,12.1,6.3L236.8,377l4.9,7.8,7.9,6.9,9.3,7.5,4.8,8.8,9.3,5.8,9.4,8.1,1,12.7,2.9,8.8,13.9,3.6,3.9,12.7-.7,13.1Z" fill="#7697a3"/>
        <path id="Path_2459" d="M240.6,510.5l-9.1-7.6-2.6-9.9-16-2-5.7-11.3.9-13.2-3.5-8.2L192,454.2l-7.5-9.9,2.3-13.2-10.3-4.7-8.9-7.8-2.1-12.2-.3-11.1-11-5L151.1,380l-13.3-4.3-.2-12.9L120,349.5l-6.3-9.6,2.7-14.2-5.4-7.8-6.7-7.9-6-8.1-11.5-5.7-2.6-12.9.4-10.6-14.5-2.3-5.6-11.1-2.6-9.8-9.2-6.7-1.6-11.4-9.9-6.2-.9-12.9-4.5-8.9-3.6-9.7L24,187.2,0,164.7l3.4-3.6L27,183.4l9.1,7.1,4,10.8L45,211.5l.7,10.7,9.7,6.1L57,239.8l8.9,6.6,3,11.3,4.2,8,16.5,2.7L89,283.2l2,9.5,10.3,5.2,6.7,8.9,6.7,8.1,6.7,9.6-2.7,14.3,5,7.5,18.7,14,.2,11.8,12.5,4,3.1,10.7,11.8,5.3.3,14,1.8,10,7.3,6.3,12.9,5.7-2.6,15L195,450l13.2,4.2,4.9,11.4-.9,13.2,3.8,7.6,16.7,2,3.1,11.6,7.8,6.7Z" fill="#7697a3"/>
      </g>
      <path id="Path_2460" d="M416.8,534.5,395,514.7l-7.9-12.4,1.1-16.9L381,474.6l-8.3-10.8-7.8-11L352,444.2,347.7,429l-.9-14-16.6-5.3-6.9-13.1-4.4-13.2-10.8-9.6-3.2-14.2-11.6-9.1-2.4-15.4-6.2-11.9-5.2-12.6-10-9.4-28.5-31,3.7-3.4,28.4,31,10.8,10.4,5.3,12.9,6.5,12.9,2.2,13.9,11.4,9,3.2,14.3,10.7,9.4,4.6,14.2,5.8,10.9,17.9,5.6,1.3,17.1,3.5,12.7,12.5,8.5,8,11.2,8.4,10.9,8.2,12.4-1.1,17,6.8,10.7,21.2,19Z" fill="#7697a3"/>
    </g>
    <g id="Group_1073" transform="translate(13881.1 5471.782)">
      <path id="Path_2496" d="M772.1,262.9c13.5,17.3,29.9,31,50.3,39.3L376.7,871.8c-12.5,1.8-44.3-21.9-50.3-39.3Z" fill="url(#linear-gradient)"/>
      <g id="Group_1063">
        <path id="Path_2497" d="M783.4,271.6,337.7,841.2,5.4,594.8a13.563,13.563,0,0,1-2.7-19c.1-.1.1-.2.2-.3L103.2,442.7l17.5-23.2L432.8,6.4a13.561,13.561,0,0,1,19.1-2.2,1.381,1.381,0,0,0,.4.3Z" fill="#2b3a47"/>
        <path id="Path_2498" d="M2.8,575.6,89.2,459.1l87.5-115.8L351.6,111.8l43.7-57.9L417.2,25l10.9-14.5c2-2.4,3.4-4.9,6-7.2a14.873,14.873,0,0,1,18.4-.2l7.1,5.7,14.1,11.4L501.9,43l56.4,45.5,112.9,91.1,112.1,92.1-113.7-90L556.7,90.5,500.2,45,472,22.2,457.9,10.8l-7.1-5.6a11.783,11.783,0,0,0-7.6-2.5,12.366,12.366,0,0,0-7.6,2.7c-2,1.6-3.7,4.4-5.6,6.7L419.1,26.6,397.2,55.5l-43.7,57.9L178.7,345,91.3,460.7Z" opacity="0.25"/>
        <path id="Path_2499" d="M446,60,148.3,436.9l-27.7-17.2-17.5,23.2c6.4,4.2,18.1,11.6,26.9,17.2L27.8,589.3c90.3,79.1,195.8,161.2,313.4,245.8L750.3,313.7Z" opacity="0.25"/>
        <path id="Path_2500" d="M53.2,566.7,446,60c6.1-7.9,22.7-12.1,30.3-5.6l290.4,242L367.2,824.6,56.7,591.6A17.584,17.584,0,0,1,53,567C53.1,566.9,53.2,566.8,53.2,566.7Z" fill="#f2c785"/>
        <path id="Path_2501" d="M67.2,560.6,455.5,59.4a17.552,17.552,0,0,1,24.7-3.1c.2.2.4.3.6.5C593,133.5,695,211.1,780.7,290.3L377.3,812.5c-80.9-71.4-186.4-146.9-306.7-227A17.686,17.686,0,0,1,67,560.8C67,560.7,67.1,560.7,67.2,560.6Z" fill="#fff"/>
        <path id="Path_2502" d="M205.7,375.2,144.6,451l-7.1-3.2-24.3-11L92.3,424.3,106,414l52.2-79.4L203,372.8Z" fill="#d3de16"/>
        <path id="Path_2503" d="M205.7,375.2,144.6,451l-7.1-3.2,65.4-75Z" opacity="0.25"/>
        <g id="Group_1062" transform="translate(103.307 92.793)">
          <path id="Path_2504" d="M358.5,0c25.5,15.4,50.7,31.5,75.2,48.4C458.3,65.2,482.4,83,506,101.3c23.4,18.4,46.5,37.5,68.7,57.4s43.8,40.6,64.5,62.1q-32.1-31.2-65.8-60.6-33.75-29.4-69-56.8C481,85,457,67.3,432.7,50.1Q396.1,24.3,358.5,0Z" fill="#dbd1c1"/>
          <path id="Path_2505" d="M338.6,26Q377,49.1,414.1,74.3c24.7,16.8,48.7,34.6,72.3,52.8,23.5,18.4,46.6,37.5,68.8,57.4s43.8,40.6,64.5,62.1q-32.1-31.2-65.8-60.7-33.75-29.4-69-56.9c-23.4-18.4-47.5-36.1-71.9-53.2C388.6,58.9,363.7,42.2,338.6,26Z" fill="#dbd1c1"/>
          <path id="Path_2506" d="M318.7,52.1q38.55,22.95,75.6,48.1C419,117,443.2,134.7,466.8,153c23.5,18.4,46.6,37.5,68.9,57.4s43.9,40.7,64.6,62.1q-32.1-31.2-65.9-60.7-33.75-29.4-69.1-56.9c-23.5-18.4-47.6-36.1-72-53.2Q356.4,76.35,318.7,52.1Z" fill="#dbd1c1"/>
          <path id="Path_2507" d="M298.8,78.1q38.7,22.8,75.8,48c24.8,16.8,48.9,34.5,72.6,52.7q35.4,27.6,69,57.4,33.45,29.85,64.7,62.2-32.1-31.2-66-60.7c-22.6-19.6-45.5-38.6-69.2-56.9q-35.25-27.6-72.1-53.1Q336.55,102.2,298.8,78.1Z" fill="#dbd1c1"/>
          <path id="Path_2508" d="M278.8,104.2q38.85,22.65,75.9,47.9,37.2,25.2,72.7,52.7c23.6,18.4,46.7,37.5,69,57.4s44,40.7,64.7,62.3c-21.4-20.8-43.5-41.1-66-60.7-22.6-19.6-45.6-38.6-69.3-56.9-23.5-18.4-47.7-36.1-72.3-53.1C329.2,136.6,304.2,120.1,278.8,104.2Z" fill="#dbd1c1"/>
          <path id="Path_2509" d="M258.9,130.2c25.9,15,51.3,31,76.1,47.7q37.2,25.2,72.8,52.7,35.4,27.6,69.1,57.5c22.3,19.9,44,40.8,64.7,62.3q-32.25-31.35-66.1-60.8c-22.6-19.6-45.7-38.7-69.4-57-23.6-18.4-47.8-36.1-72.3-53.1S284.3,146,258.9,130.2Z" fill="#dbd1c1"/>
          <path id="Path_2510" d="M239,156.2q38.85,22.5,76.3,47.6c24.9,16.7,49.1,34.3,73,52.7q35.55,27.6,69.1,57.5,33.6,30,64.8,62.4-32.25-31.35-66.1-60.8-33.9-29.55-69.4-57c-23.6-18.4-47.8-36-72.5-53.1Q277.3,179.85,239,156.2Z" fill="#dbd1c1"/>
          <path id="Path_2511" d="M219.1,182.2q39,22.35,76.5,47.4,37.35,25.05,73,52.6c23.7,18.4,46.9,37.5,69.2,57.5q33.6,30,64.8,62.4-32.25-31.35-66.1-60.9-33.9-29.55-69.5-57-35.55-27.6-72.6-53C269.7,214.2,244.7,197.9,219.1,182.2Z" fill="#dbd1c1"/>
          <path id="Path_2512" d="M199.2,208.2q39.15,22.2,76.6,47.3c25,16.7,49.3,34.3,73.2,52.6,23.7,18.4,46.9,37.5,69.3,57.5s44,40.8,64.9,62.5q-32.25-31.35-66.2-60.9-33.9-29.55-69.6-57c-23.7-18.4-48-36-72.6-53Q237.6,231.7,199.2,208.2Z" fill="#dbd1c1"/>
          <path id="Path_2513" d="M179.2,234.2q39.3,22.05,76.8,47.1c25,16.6,49.4,34.2,73.3,52.5,23.7,18.4,46.9,37.5,69.4,57.6q33.6,30,65,62.5-32.4-31.35-66.3-61-33.9-29.55-69.7-57.1-35.55-27.6-72.8-52.9Q217.85,257.7,179.2,234.2Z" fill="#dbd1c1"/>
          <path id="Path_2514" d="M159.3,260.3q39.45,22.05,77,46.9c25.1,16.6,49.5,34.2,73.4,52.5,23.7,18.4,47,37.5,69.4,57.6q33.75,30,65,62.5-32.4-31.5-66.3-61-33.9-29.55-69.8-57.1c-23.7-18.4-48.1-36-72.9-52.9Q197.9,283.6,159.3,260.3Z" fill="#dbd1c1"/>
          <path id="Path_2515" d="M139.4,286.3q39.45,21.9,77.2,46.9c25.2,16.5,49.6,34.2,73.5,52.4q35.7,27.6,69.5,57.6,33.75,30,65,62.5-32.4-31.5-66.4-61-34.05-29.55-69.8-57.1c-23.7-18.4-48.2-36-73-52.9Q178.2,309.5,139.4,286.3Z" fill="#dbd1c1"/>
          <path id="Path_2516" d="M119.5,312.3q39.6,21.75,77.3,46.7c25.2,16.5,49.7,34.2,73.6,52.4C294.2,429.8,317.5,449,340,469q33.75,30.15,65.1,62.6-32.4-31.5-66.5-61.1-34.05-29.55-69.8-57.1c-23.7-18.4-48.2-36-73.1-52.8S145.3,327.7,119.5,312.3Z" fill="#dbd1c1"/>
          <path id="Path_2517" d="M99.6,338.3q39.6,21.6,77.5,46.6c25.2,16.5,49.8,34.1,73.7,52.4,23.8,18.4,47.2,37.6,69.7,57.7s44.3,41,65.1,62.7q-32.4-31.5-66.5-61.1c-22.7-19.7-46-38.9-69.9-57.1q-35.7-27.6-73.3-52.8Q138.55,361.2,99.6,338.3Z" fill="#dbd1c1"/>
          <path id="Path_2518" d="M79.6,364.3q39.75,21.45,77.7,46.4c25.2,16.5,49.8,34.1,73.8,52.4,23.9,18.4,47.3,37.6,69.7,57.7q33.9,30.15,65.2,62.7-32.4-31.65-66.5-61.2c-22.7-19.7-46-38.9-70-57.1-23.8-18.4-48.4-35.9-73.4-52.7Q118.75,387.15,79.6,364.3Z" fill="#dbd1c1"/>
          <path id="Path_2519" d="M59.7,390.4q39.9,21.45,77.8,46.2,37.95,24.75,74,52.3c23.9,18.4,47.3,37.6,69.8,57.7q33.9,30.15,65.3,62.8-32.4-31.65-66.6-61.2c-22.8-19.7-46.1-38.9-70.1-57.1q-35.85-27.6-73.4-52.7Q98.85,413.05,59.7,390.4Z" fill="#dbd1c1"/>
          <path id="Path_2520" d="M39.8,416.4c26.6,14.2,52.7,29.6,78,46.1,25.4,16.5,50,34,74.1,52.3q36,27.6,69.9,57.8,33.9,30.15,65.3,62.8-32.4-31.65-66.6-61.3c-22.8-19.7-46.2-38.9-70.1-57.1q-35.85-27.6-73.6-52.7C91.7,447.5,66,431.4,39.8,416.4Z" fill="#dbd1c1"/>
          <path id="Path_2521" d="M19.9,442.4q40.05,21.15,78.2,45.9,38.1,24.6,74.1,52.3,36,27.6,70,57.8,33.9,30.15,65.4,62.9-32.4-31.65-66.7-61.3c-22.8-19.7-46.2-39-70.2-57.2-23.9-18.4-48.6-35.9-73.7-52.7C71.8,473.4,46.2,457.4,19.9,442.4Z" fill="#dbd1c1"/>
          <path id="Path_2522" d="M0,468.4c26.8,14,52.9,29.4,78.4,45.8s50.2,33.9,74.3,52.2q36,27.6,70.1,57.8,33.9,30.15,65.4,62.9c-21.6-21.1-44-41.5-66.8-61.4-22.9-19.7-46.2-39-70.3-57.2q-36-27.6-73.8-52.6Q39.35,490.85,0,468.4Z" fill="#dbd1c1"/>
        </g>
      </g>
      <g id="Group_1066" transform="translate(365.454 293.341)">
        <path id="Path_2523" d="M787.4,276.6,668.7,423l-18.2,22.4L338.3,830.7a13.513,13.513,0,0,1-18.9,2.5l-.3-.3L0,569.6,445.7,0,784.6,257.1a13.719,13.719,0,0,1,3.2,19A1.754,1.754,0,0,0,787.4,276.6Z" fill="#243647"/>
        <path id="Path_2524" d="M338.2,830.7l92.4-111.9L522,606.1,704.7,380.7l45.7-56.3,22.8-28.2,11.4-14.1c1.8-2.4,4-4.4,5.6-7.5a14.764,14.764,0,0,0,1-9.7,15.3,15.3,0,0,0-5.2-8.2l-7.3-5.6-14.4-11-28.9-21.9-57.8-43.9L562.1,86.5,445.7,0,560.5,88.7l115.6,87.7,57.8,43.9,28.9,21.9,14.4,11,7.1,5.5a12.051,12.051,0,0,1,3.4,14.8c-1.1,2.4-3.4,4.6-5.3,7.1L771,294.7l-22.8,28.2-45.7,56.3L519.9,604.6,428.5,717.3Z" opacity="0.25"/>
        <path id="Path_2525" d="M669,422l-30.5-24.7,93.6-120.8L412.7,42,4.9,564.5c110.5,93.8,215.6,176.5,314,245.1L624.5,420l26.2,24.5Z" opacity="0.25"/>
        <path id="Path_2526" d="M334.8,779.7,732.2,276.6c6.2-7.8,6.3-24.9-1.9-30.8L425.6,22.1,9,537,309.8,782.4a17.531,17.531,0,0,0,24.8-2.5Z" fill="#f2c785"/>
        <path id="Path_2527" d="M337.4,764.7,730.5,267.3a17.623,17.623,0,0,0-2.9-24.7c-.2-.2-.4-.3-.6-.5C625.6,151.6,525.7,71.2,428.3,7.1L18.3,524.2c88.8,61.4,187.4,145.6,294.1,243.2a17.59,17.59,0,0,0,24.7-2.5C337.2,764.8,337.3,764.7,337.4,764.7Z" fill="#fff"/>
        <g id="Group_1064" transform="translate(629.855 322.961)">
          <path id="Path_2528" d="M58.9,0,0,77.5l4.9,6.1,24.6,27.2,80.2-76.3L61.8,2.1Z" fill="#ff7b17"/>
          <path id="Path_2529" d="M58.9,0,0,77.5l4.9,6.1,57-81.5Z" opacity="0.25"/>
        </g>
        <path id="Path_2530" d="M452.8,579.9,393.6,658l7.8,7.6,40.8,38.1,56.6-88.6-41.9-32.2Z" fill="#ea0a48"/>
        <g id="Group_1065" transform="translate(46.629 49.686)">
          <path id="Path_2531" d="M649.9,219.4q-31.65-31.65-65.1-61.4-33.45-29.7-68.7-57.4c-23.6-18.3-47.6-36.1-72.3-52.9Q406.75,22.35,368,0q37.95,23.7,74.6,49.3C467,66.5,491,84.1,514.4,102.6c23.5,18.3,46.4,37.4,69,56.9Q617.3,188.9,649.9,219.4Z" fill="#dbd1c1"/>
          <path id="Path_2532" d="M629.5,245q-31.65-31.8-65-61.6-33.45-29.85-68.7-57.5c-23.6-18.3-47.6-36.1-72.3-53s-50-32.8-75.9-47.6q38.1,23.55,74.7,49.3c24.5,17.2,48.4,34.9,71.8,53.4,23.5,18.3,46.4,37.5,69,57Q596.85,214.25,629.5,245Z" fill="#dbd1c1"/>
          <path id="Path_2533" d="M608.9,270.6c-21-21.2-42.6-41.9-64.9-61.8s-45.2-39.1-68.7-57.7C451.7,132.7,427.7,114.9,403,98c-24.7-16.8-50-32.8-75.9-47.7Q365.2,74,401.9,99.7c24.5,17.2,48.4,34.9,71.9,53.4,23.5,18.3,46.5,37.5,69,57.1Q576.4,239.75,608.9,270.6Z" fill="#dbd1c1"/>
          <path id="Path_2534" d="M588.5,296.2c-20.9-21.3-42.6-42.1-64.8-62q-33.45-30-68.7-57.8c-23.6-18.4-47.6-36.3-72.3-53.1s-50-32.8-75.9-47.8c25.4,15.8,50.3,32.2,74.8,49.5q36.75,25.8,71.9,53.5c23.5,18.4,46.5,37.6,69,57.2S566.8,275.5,588.5,296.2Z" fill="#dbd1c1"/>
          <path id="Path_2535" d="M568,321.8c-20.8-21.4-42.5-42.2-64.7-62.2-22.3-20.1-45.2-39.3-68.7-57.9-23.6-18.5-47.6-36.3-72.4-53.1q-37.05-25.35-76-47.8c25.4,15.8,50.3,32.2,74.8,49.5q36.75,25.8,71.9,53.6,35.25,27.6,69,57.4Q535.65,290.55,568,321.8Z" fill="#dbd1c1"/>
          <path id="Path_2536" d="M547.6,347.4C526.7,325.9,505.2,305,483,285c-22.3-20.1-45.2-39.3-68.7-58-23.6-18.5-47.6-36.4-72.4-53.2q-37.2-25.35-76-47.9,38.25,23.7,74.9,49.5,36.75,25.8,71.9,53.6c23.5,18.4,46.5,37.7,69,57.4Q515.3,316.25,547.6,347.4Z" fill="#dbd1c1"/>
          <path id="Path_2537" d="M527.1,373q-31.2-32.4-64.5-62.6-33.3-30.15-68.7-58.1c-23.6-18.5-47.6-36.4-72.5-53.3q-37.05-25.5-76-48,38.25,23.7,74.9,49.5c24.5,17.2,48.6,35,71.9,53.7,23.6,18.5,46.5,37.8,68.9,57.6C483.7,331.7,505.7,352,527.1,373Z" fill="#dbd1c1"/>
          <path id="Path_2538" d="M506.6,398.6q-31.05-32.55-64.4-62.9-33.3-30.3-68.7-58.2T301,224.1c-24.8-17-50.2-32.9-76.2-48q38.25,23.7,75,49.6,36.75,25.8,72,53.8c23.6,18.5,46.5,37.9,68.9,57.7Q474.45,367.05,506.6,398.6Z" fill="#dbd1c1"/>
          <path id="Path_2539" d="M486.1,424.1q-31.05-32.7-64.3-63-33.3-30.3-68.7-58.4c-23.6-18.6-47.7-36.5-72.6-53.4-24.8-16.9-50.2-33-76.2-48q38.25,23.7,75.1,49.6c24.5,17.2,48.6,35.1,72,53.8q35.4,27.9,68.9,57.8Q454.2,392.65,486.1,424.1Z" fill="#dbd1c1"/>
          <path id="Path_2540" d="M465.7,449.8q-30.9-32.85-64.2-63.2c-22.2-20.3-45.1-39.7-68.6-58.5-23.6-18.6-47.7-36.5-72.6-53.5q-37.2-25.5-76.3-48,38.25,23.7,75.1,49.7c24.5,17.2,48.7,35.2,72.1,53.9,23.6,18.6,46.5,38,68.9,57.9S444.3,428.6,465.7,449.8Z" fill="#dbd1c1"/>
          <path id="Path_2541" d="M445.2,475.4q-30.75-32.85-64.1-63.4c-22.2-20.4-45.1-39.8-68.6-58.6q-35.4-28.05-72.6-53.5-37.2-25.5-76.3-48,38.25,23.7,75.2,49.7c24.5,17.3,48.7,35.2,72.1,54q35.4,27.9,68.9,58.1Q413.25,443.4,445.2,475.4Z" fill="#dbd1c1"/>
          <path id="Path_2542" d="M424.8,500.9q-30.75-33-64-63.6c-22.1-20.4-45.1-39.9-68.6-58.7-23.6-18.7-47.8-36.7-72.6-53.6q-37.2-25.5-76.4-48.1,38.25,23.7,75.2,49.8,36.9,25.95,72.2,54,35.4,28.05,68.9,58.1Q392.8,468.95,424.8,500.9Z" fill="#dbd1c1"/>
          <path id="Path_2543" d="M404.2,526.6c-20.5-22.1-41.7-43.4-63.9-63.9-22.1-20.5-45.1-40-68.6-58.9-23.7-18.7-47.8-36.7-72.6-53.7S148.7,317,122.7,302c25.5,15.9,50.7,32.5,75.3,49.8s48.7,35.3,72.2,54.1q35.4,28.05,68.9,58.3C361.4,484.3,383.2,505.1,404.2,526.6Z" fill="#dbd1c1"/>
          <path id="Path_2544" d="M383.8,552.1q-30.6-33.3-63.8-64c-22.1-20.5-45.1-40-68.6-58.9-23.7-18.7-47.8-36.8-72.7-53.8q-37.2-25.65-76.5-48.2,38.4,23.85,75.3,49.8t72.3,54.2q35.4,28.05,68.8,58.4Q352.2,519.9,383.8,552.1Z" fill="#dbd1c1"/>
          <path id="Path_2545" d="M363.3,577.7q-30.45-33.45-63.7-64.3c-22.1-20.5-45.1-40.2-68.6-59.1-23.7-18.7-47.9-36.8-72.7-53.8q-37.35-25.65-76.6-48.2,38.4,23.85,75.4,49.9c24.6,17.3,48.8,35.3,72.3,54.2,23.6,18.7,46.5,38.3,68.8,58.5Q331.8,545.35,363.3,577.7Z" fill="#dbd1c1"/>
          <path id="Path_2546" d="M342.9,603.3c-20.3-22.3-41.5-43.9-63.6-64.4-22.1-20.6-45.1-40.3-68.6-59.2q-35.55-28.2-72.8-53.9-37.35-25.65-76.6-48.3,38.4,23.85,75.5,49.9c24.6,17.4,48.8,35.3,72.3,54.3,23.6,18.7,46.5,38.4,68.8,58.6C300.2,560.7,321.9,581.6,342.9,603.3Z" fill="#dbd1c1"/>
          <path id="Path_2547" d="M322.4,628.9q-30.3-33.6-63.5-64.7c-22-20.7-45-40.4-68.6-59.3-23.7-18.8-47.9-36.9-72.8-54S67,417.7,40.9,402.6c25.6,15.9,50.9,32.6,75.5,50C141.1,470,165.2,488,188.7,507c23.6,18.7,46.5,38.4,68.8,58.8Q290.95,596.25,322.4,628.9Z" fill="#dbd1c1"/>
          <path id="Path_2548" d="M301.9,654.5q-30.15-33.9-63.4-64.8c-22-20.7-45-40.4-68.5-59.4-23.7-18.8-47.9-36.9-72.9-54q-37.35-25.65-76.7-48.4,38.55,23.85,75.5,50c24.7,17.4,48.9,35.4,72.4,54.4q35.4,28.2,68.8,58.9Q270.55,621.65,301.9,654.5Z" fill="#dbd1c1"/>
          <path id="Path_2549" d="M281.4,680.1q-30.15-33.9-63.2-65c-22-20.7-45-40.5-68.5-59.6q-35.55-28.35-72.9-54.1Q39.45,475.6,0,453.1q38.55,24,75.6,50.1T148,557.7c23.7,18.8,46.6,38.6,68.8,59C239,637,260.7,658.1,281.4,680.1Z" fill="#dbd1c1"/>
        </g>
        <path id="Path_2550" d="M409.7,672.6l-.2,12.1,27,25.7,5.6-6.7Z" fill="#b0a7aa"/>
      </g>
      <g id="Group_1069" transform="translate(645.341 414.569)">
        <g id="Group_1067">
          <path id="Path_2551" d="M11.9,12c-2.4,2.4-6.7,1.9-9.5-1S-.8,3.9,1.5,1.5,8.2-.4,11,2.5C13.9,5.3,14.3,9.7,11.9,12Z" fill="#f2c785"/>
          <path id="Path_2552" d="M12.7,11.8c-1.5,2.1-4.9,2.4-7.5.5S1.5,7.1,3,5s4.9-2.4,7.5-.5C13.2,6.4,14.2,9.6,12.7,11.8Z" fill="#c99759"/>
        </g>
        <g id="Group_1068" transform="translate(44.604 34.398)">
          <path id="Path_2553" d="M1,2.7C-.7,5.6.8,9.6,4.3,11.6s7.8,1.4,9.4-1.5c1.7-2.9.2-6.9-3.3-8.9S2.7-.2,1,2.7Z" fill="#f2c785"/>
          <path id="Path_2554" d="M1,1.9C-.7,3.9-.1,7.2,2.3,9.3s5.8,2.3,7.5.3,1.1-5.3-1.3-7.4C6.1,0,2.7-.1,1,1.9Z" fill="#c99759"/>
        </g>
        <path id="Path_2555" d="M7.3,5.4A30.332,30.332,0,0,1,24.5,2,32.213,32.213,0,0,1,41,8.8,35.3,35.3,0,0,1,51.4,23.1a34.149,34.149,0,0,1,2.1,17.3,2.7,2.7,0,0,1-3,2.3,2.668,2.668,0,0,1-2.3-2.5v-.1c-.4-10-4.5-19.5-12.1-25.4A26.894,26.894,0,0,0,23.4,8.9a32.037,32.037,0,0,0-14,1.3H9.3A2.563,2.563,0,0,1,6,8.6V8.5A2.759,2.759,0,0,1,7.3,5.4Z" fill="url(#linear-gradient-2)"/>
        <path id="Path_2556" d="M39.9,12.9a32.52,32.52,0,0,1,6,6.3c1.6,2.3,2.4,4.7,4.3,6.8a.52.52,0,0,0,.4.2c.3,0,.5-.4.5-.7,0-2.6-1.6-5.3-2.9-7.4-2.7-4.2-6-8.5-10.3-11.1A31.649,31.649,0,0,0,23.5,2.8c-.9-.1-3.2-.5-3.4.9-.1.7.6,1,1.2,1.3,1.4.7,3.1.7,4.6,1A31.293,31.293,0,0,1,33,8.4,45.431,45.431,0,0,1,39.9,12.9Z" fill="url(#linear-gradient-3)"/>
      </g>
      <g id="Group_1072" transform="translate(464.621 642.546)">
        <g id="Group_1070">
          <path id="Path_2557" d="M11.9,12c-2.4,2.4-6.7,1.9-9.5-1S-.8,3.9,1.5,1.5,8.2-.4,11,2.5,14.2,9.6,11.9,12Z" fill="#f2c785"/>
          <path id="Path_2558" d="M12.6,11.8c-1.5,2.1-4.9,2.4-7.5.5S1.5,7.1,2.9,5s4.9-2.4,7.5-.5C13.1,6.4,14.1,9.7,12.6,11.8Z" fill="#c99759"/>
        </g>
        <g id="Group_1071" transform="translate(44.603 34.398)">
          <path id="Path_2559" d="M.9,2.7C-.8,5.6.7,9.6,4.2,11.6S12,13,13.6,10.1c1.7-2.9.2-6.9-3.3-8.9C6.9-.8,2.6-.2.9,2.7Z" fill="#f2c785"/>
          <path id="Path_2560" d="M1,1.9C-.7,3.9-.1,7.2,2.3,9.3s5.8,2.3,7.5.3,1.1-5.3-1.3-7.4S2.7-.1,1,1.9Z" fill="#c99759"/>
        </g>
        <path id="Path_2561" d="M7.3,5.4A30.332,30.332,0,0,1,24.5,2,32.213,32.213,0,0,1,41,8.8,35.3,35.3,0,0,1,51.4,23.1a34.149,34.149,0,0,1,2.1,17.3,2.7,2.7,0,0,1-3,2.3,2.668,2.668,0,0,1-2.3-2.5v-.1c-.4-10-4.5-19.5-12.1-25.4A26.894,26.894,0,0,0,23.4,8.9,31.488,31.488,0,0,0,9.1,10.1h.1A2.375,2.375,0,0,1,6,8.6V8.5A2.635,2.635,0,0,1,7.3,5.4Z" fill="url(#linear-gradient-4)"/>
        <path id="Path_2562" d="M39.9,13a32.52,32.52,0,0,1,6,6.3c1.6,2.3,2.4,4.7,4.3,6.8a.52.52,0,0,0,.4.2c.3,0,.5-.4.5-.7,0-2.6-1.6-5.3-2.9-7.4-2.7-4.2-6-8.6-10.3-11.1A31.649,31.649,0,0,0,23.5,2.9c-.9-.1-3.2-.5-3.4.9-.1.7.6,1,1.2,1.3,1.4.7,3.1.7,4.6,1A31.293,31.293,0,0,1,33,8.5,34.065,34.065,0,0,1,39.9,13Z" fill="url(#linear-gradient-5)"/>
      </g>
    </g>
    <g id="Group_1075" transform="translate(14157.916 6240.983)">
      <path id="Path_2563" d="M775.8,57.2l-10-30L712.4,47.3l-4.5-13.4-21,7.3L683.8,29,374.5,138l-2,3.6,2.1,8.4-4.6,1.6-66,23-9,3.1L60.8,259.4h0L17.5,284.6l.9,2.5L0,297.9l21.9-1.3,1,2.8,49.8-4.5h0L309,219.6l9-2.9,407.5-130L721,73.3Z" opacity="0.25"/>
      <g id="Group_1074" transform="translate(4.389)">
        <path id="Path_2564" d="M26.4,285.7,0,287.7l21.8-13.5Z" fill="url(#linear-gradient-6)"/>
        <path id="Path_2565" d="M688.7,28.4l8.8,24.5,72.7-23.1L759.6,0Z" fill="#147272"/>
        <path id="Path_2566" d="M701.8,7.9l-31,11.6L366.7,133.3l-65.5,24.5-8.9,3.3L60,248l12.7,35.3,234.6-80.7,8.9-3.1L720.6,60.3Z" fill="#0d9ca4"/>
        <path id="Path_2567" d="M670.8,19.5,366.7,133.3l8.4,17.4,308.8-102Z" opacity="0.25"/>
        <path id="Path_2568" d="M72.6,283.3,60,248,17.2,274.1,23,288.9Z" fill="#147272"/>
        <path id="Path_2569" d="M301.2,157.8l-8.9,3.3,14.9,41.5,8.9-3.1Z" fill="url(#linear-gradient-7)"/>
        <path id="Path_2570" d="M685.9,33.5,378.1,139.7l-7.2-20.1L677.7,3.6Z" fill="#147272"/>
        <path id="Path_2571" d="M685.9,33.5,378.1,139.7l-7.2-20.1-1.9,3.6,6.1,22.4L688.2,41.5Z"/>
        <path id="Path_2572" d="M365.8,154.7,67.1,261.9,20.7,282.3l-1.8-5,44.4-24.1,298-110.7Z" fill="#1a2123" opacity="0.5"/>
        <path id="Path_2573" d="M720.6,60.3,701.8,7.9l.1,10.3-15.7,7.2,3.9,11.8,16.1-3.3Z" fill="url(#linear-gradient-8)"/>
        <path id="Path_2574" d="M762.1,18.1,714.4,32l-1.1-8.5L758.4,5.8l1.2-5.9,10.7,29.8Z" fill="url(#linear-gradient-9)"/>
      </g>
    </g>
    <g id="Group_1077" transform="translate(13716.382 5363.322)">
      <path id="Path_2590" d="M8.9,304.4,287.5,414.8,410.1,149.4l16.7-9.9L237.1,79.1Z" opacity="0.25"/>
      <path id="Path_2591" d="M397.6,127.9C370,220.6,332,312.1,285.1,395.8,201.3,380.6,73.4,330.4,0,281.7c37.5-58.8,76.3-150.3,96.2-227,.4-1.6.8-3.1,1.2-4.7v-.5c1.3-17.6,3.1-33.6,3-49.5,97.9,32.8,203.9,66.1,302.4,84.2C400.5,99.2,398.7,113.1,397.6,127.9Z" fill="#ff7b17"/>
      <path id="Path_2592" d="M96.1,54.7c.4-1.6.8-3.1,1.2-4.7v-.5l295.8,76.8Z" opacity="0.25"/>
    </g>
    <g id="Group_1078" transform="translate(12469.839 4576.984)">
      <path id="Path_2593" d="M1125.6,403.5,1070.1,372,534.3,914.2l-29.7,139.7,57.3,43.3Z" fill="#243647"/>
      <path id="Path_2594" d="M558.8,1079.5,1107.5,393l3-42.7L546.9,959.6l-5.8,69.9Z" fill="#f4ddbe"/>
      <path id="Path_2595" d="M559.9,1095.6,49.7,713.9,38.3,694.4l-17.7-.2c-12.1-26.9-19-59.1-5.7-89l6.5,6.6a84.359,84.359,0,0,0-1.8,48.5c1.5,5.7,1.3,8.5,2.4,14.3l536.9,404.9Z" fill="#313f4d"/>
      <path id="Path_2596" d="M1130,337.5,571,1018.1,68.9,641.9l-23.3-3.4L32.8,614.4,7.1,591.3,554.6,0l20.7,10.6,9.2,23L604,29.9Z" fill="#043b60"/>
      <path id="Path_2597" d="M14.8,605.2c-13.2,29.9-6.3,62.1,5.7,89l17.7.2,11.4,19.5,510.2,381.7,2,1.5-1.4,14.2L43.2,717.8l-7.7-13L20.4,702l-9-6.6C-.2,670.5-5.1,631.2,7,591.3l25.7,23.1.2.4,12.5,23.7,23.2,3.4h.1l502,376.2-2.7,11.7-11.6-8.8L68.7,651l-25.5-4.5L26.4,617.3l-.2-.4-5.1-5.1Z" fill="#243647"/>
      <path id="Path_2598" d="M571,1018.1l559.1-680.6-1.4,12.9L568.4,1029.7Zm-10.6,93.2,563.7-696.1,1.4-11.7L561.8,1097Z" fill="#243647"/>
      <path id="Path_2599" d="M558.8,1079.5,21.9,674.6c-1.1-5.9-.9-8.6-2.4-14.3a83.519,83.519,0,0,1,1.8-48.5l5.1,5.1.2.5,16.8,29.1L68.9,651l487.9,370C552,1036.4,553.5,1056.4,558.8,1079.5Z" fill="#e8b491"/>
      <path id="Path_2600" d="M32.1,611.8,575.3,10.6l9.2,23L45.6,638.6Z" fill="#372ba7" opacity="0.5"/>
      <path id="Path_2601" d="M604.1,29.9,68.9,641.9l-23.3-3.4,538.9-605Z" fill="#021245" opacity="0.5"/>
    </g>
    <g id="Group_1079" transform="translate(12683.079 4948.927)">
      <path id="Path_2602" d="M445.2,273.7,201.1,447.4,18.5,219.1,0,213.6,169.7,109.4Z" opacity="0.25"/>
      <path id="Path_2603" d="M25.5,195.2c49.1,83.4,107.8,163.1,173.4,233.2,77.7-34.8,190-114.1,249.6-178.9C398,201.4,338.4,121.9,300.9,52c-.7-1.4-1.6-2.9-2.3-4.3-.1-.2-.1-.3-.2-.5-5.5-16.7-11-31.9-14.7-47.3-87.2,55.3-182.2,113-273.5,154.2C16,168,20.9,181,25.5,195.2Z" fill="#ff7b17"/>
      <path id="Path_2604" d="M300.8,52c-.7-1.4-1.6-2.9-2.3-4.3-.1-.2-.1-.3-.2-.5L29.5,192.6Z" opacity="0.25"/>
    </g>
    <g id="Group_1080" transform="translate(12802.984 4801.514)">
      <path id="Path_2605" d="M393.8,313.4,103.5,387.8,15.3,109.1,0,97.2,195.8,61.1Z" opacity="0.25"/>
      <path id="Path_2606" d="M30.5,89.3c15.8,95.5,41.9,191,77.9,279.9,85-4.5,218.3-38.2,297.3-77.2-29.9-63.1-56.8-158.7-66.8-237.4-.2-1.6-.4-3.2-.5-4.8v-.5c.9-17.6,1.3-33.7,3.3-49.4C240.4,20.1,131,39.9,31,45.5,31.3,60.5,31.3,74.5,30.5,89.3Z" fill="#d3de16"/>
      <path id="Path_2607" d="M338.8,54.6c-.2-1.6-.4-3.2-.5-4.8v-.5L35.1,88.2Z" opacity="0.25"/>
    </g>
    <g id="Group_1093" transform="translate(14184.249 4504)">
      <g id="Group_1089" transform="translate(386.409 361.842)">
        <circle id="Ellipse_299" cx="341.8" cy="341.8" r="341.8" transform="translate(4.6 85.9)" fill="#0d9ca4"/>
        <circle id="Ellipse_300" cx="341.8" cy="341.8" r="341.8" transform="translate(29.5 29.5)" fill="#feefcb"/>
        <path id="Path_2648" d="M566.3,629.2c-142.3,107.7-345,79.6-452.7-62.6C36.9,465.3,29,333.3,82.2,226.9a319.548,319.548,0,0,1,94-113.1C318.5,6,521.3,34.1,629.1,176.5c104.2,137.7,81.3,332.1-49.3,442.2C575.3,622.2,570.9,625.8,566.3,629.2Z" fill="#01d0d8"/>
        <path id="Path_2649" d="M551.4,605.9c-129,97.6-312.8,72.2-410.4-56.8-69.5-91.8-76.6-211.4-28.4-307.9a290.432,290.432,0,0,1,85.2-102.5c129-97.6,312.9-72.3,410.5,56.8,94.4,124.8,73.7,301-44.7,400.8C559.6,599.6,555.6,602.8,551.4,605.9Z" fill="#873815"/>
        <path id="Path_2650" d="M579.7,618.6c-19.4-119.8-82.4-233-177.2-309.2-60.4-48.6-133.5-82.8-210.7-90.6a316.158,316.158,0,0,0-109.6,8.1,319.548,319.548,0,0,1,94-113.1C318.5,6,521.3,34.1,629.1,176.5,733.3,314.1,710.4,508.5,579.7,618.6Z" fill="#873815"/>
      </g>
      <path id="Path_2651" d="M1056.7,652c95-9.2,199.1-33.5,285.7-73.7-153.1-67.5-324.8-98.5-490.7-76.3,28.4-147.4,4.3-304.5-67.2-436.5-59.7,153.1-68.3,309.2-32.8,469.6A1152.2,1152.2,0,0,0,487.8,74.6C484.6,279.6,563.3,502,700,654.8,541.5,540.6,375,423.1,182,393.6,299.6,546.9,474.6,655.2,664.1,692.2c-121.2,84.3-210.5,204.9-271,339.6A1670.255,1670.255,0,0,0,728.3,814.6c-53.6,137.1-64,277.9-43.3,423.6A856.361,856.361,0,0,0,793.6,958.3c20.7,92.9,57.5,185.1,110.4,264.1a962.4,962.4,0,0,0-29.4-426c108.3,47.4,217.6,68.7,335.6,61.9q-77.7-55.2-155.5-110.6c58.8-.3,107.8-20.7,163.6-39.4C1176.7,682.3,1103.4,666.8,1056.7,652Z" fill="#486107"/>
      <path id="Path_2652" d="M769.7,693.9C657.4,749.4,576.1,863.3,560,987.5c81.1-28.4,155.1-67.5,199.1-141.3,29.2,67.5,77.9,124.7,148.5,145-2.2-95.8-31.2-181-85.2-260.3,65.4,2.4,135.1-18.6,179-67.2-49.1-6.3-104.5-18.9-153.8-14,9-109.6-23.9-218.7-76.5-315.3-21.2,73.2-40.1,143.8-31,219.4-76.4-58.6-171-100.2-265-121,25.5,58.7,55.8,124.8,97.5,173.2C614.3,654.5,705.8,696.9,769.7,693.9Z" fill="#386d16"/>
      <g id="Group_1090" transform="translate(782.442)">
        <path id="Path_2653" d="M492,0c-4,.9-12.1,17.1-14.3,20.2L438.4,76Q327.55,233.2,216.8,390.4q-55.2,78.45-110.4,156.7-21,29.85-42.2,59.8c-19.4,27.6-33.6,57.7-59.5,80.3,8.3-49.9,25.9-97,29.3-147.8.9-13.1,8.2-147,4.5-148.1a424.266,424.266,0,0,0,66.7,15.4c7.2,1,15.9,1.3,19.9-4.8,4.7-7.1-1.2-16.3-7.1-22.3-17.6-17.9-43.2-37.7-69-46.2C61.9,286.1,85.1,242,115.3,203a238.386,238.386,0,0,0,97,35.4c8.5,1.1,19,.8,23.1-6.7,3.1-5.6.9-12.7-1.6-18.7-13.1-29.2-36.9-53.4-65.7-67.7a469.942,469.942,0,0,1,38.6-31.9C238,90.1,272.7,71.5,309,56a273.313,273.313,0,0,0,40,36.8c2.3,1.7,5,3.5,7.9,3.1,5.7-.9,6.6-8.7,5.7-14.4-1.6-10.7-4.7-27.8-10.3-42.2C398.1,23.1,445.6,10.9,492,0Z" fill="url(#linear-gradient-10)"/>
        <path id="Path_2654" d="M492,0c.6,5.3-15.5,22.1-18.4,26.1q-24.75,35.25-49.7,70.5Q312.75,254.4,201.6,412.1,149.1,486.65,96.5,561.2C65.7,604.9,36.5,653,0,691.8c46.3-25,88.5-57.6,136.8-78.6,12.1-5.3,136.9-57.7,139.3-54.6A414.079,414.079,0,0,1,239.2,501c-3.4-6.4-6.5-14.6-2.2-20.3,5.1-6.8,15.8-4.4,23.4-.8,22.7,10.6,50,28.1,66.8,49.5,40.2-28.1,73.9-64.7,100.5-106.3a239.172,239.172,0,0,1-66-79.5c-3.8-7.6-7.1-17.6-1.5-24.1,4.2-4.9,11.6-5.2,18.1-4.8,32,2.5,62.7,16.8,85.9,39.1a490.127,490.127,0,0,0,17.1-47.1c11.4-37.4,17.2-76.3,19.7-115.7a272.4,272.4,0,0,1-48.1-25.3c-2.4-1.6-5-3.5-5.6-6.3-1.1-5.6,6-9.1,11.7-10.3,10.7-2,27.7-4.9,43.2-4.5C501.8,96.2,497.3,47.3,492,0Z" fill="url(#linear-gradient-11)"/>
        <path id="Path_2655" d="M37.6,641.8A3688.616,3688.616,0,0,1,364.7,179.2C268.8,340.9,157.1,496.5,37.6,641.8Z" fill="#386d16"/>
      </g>
      <g id="Group_1091" transform="translate(774.134 670.53)">
        <path id="Path_2656" d="M322.6,595.1c.7-3.1-8-14.7-9.4-17.3-8.6-15.9-17.3-31.8-25.9-47.7Q214.25,395.55,141,261.1L68.1,127c-9.2-17.1-18.6-34.1-27.8-51.2C27.4,52.2,11,31.4,3.9,5,36.7,28.5,64,57.7,99,78c9,5.3,102,57.6,104.2,55.4a341.363,341.363,0,0,0-34.5,42.2c-3.3,4.8-6.5,10.9-3.6,15.8,3.4,5.9,12,4.9,18.4,2.8,19-6.3,42.1-17.6,57.4-33,29.2,25.9,52.5,58,69.7,93.3a187.682,187.682,0,0,0-59.5,56.8c-3.8,5.6-7.2,13.2-3.4,18.9,2.9,4.2,8.7,5.2,13.9,5.4a112.713,112.713,0,0,0,71.5-23,364.684,364.684,0,0,1,9.2,38.8c5.6,30.6,6.7,61.9,4.9,93.3a210.892,210.892,0,0,0-40.4,15.6c-2,1-4.3,2.4-5,4.5-1.4,4.4,3.9,7.8,8.3,9.2,8.2,2.6,21.5,6.4,33.8,7.4C339.3,519.9,331.2,558.1,322.6,595.1Z" fill="url(#linear-gradient-12)"/>
        <path id="Path_2657" d="M322.6,595.1c-3.9-1.4-10.3-18.9-12.1-22.3q-16.5-30.15-32.8-60.3-73.35-135-146.8-269.9Q96.25,178.7,61.5,115C41.1,77.5,17.1,39.7,2.2,0c1.6,41.8,9.9,83.5,7.9,125.3C9.6,135.8,3.1,243.3,0,244a329.348,329.348,0,0,1,54.2-6c5.8-.2,12.7.5,15.3,5.6,3.1,6-2.4,12.8-7.7,16.9C46.2,273,24.2,286.3,2.9,290.8,8.8,329.4,23,366.3,43.3,400a191.566,191.566,0,0,1,80-19.1c6.8-.1,15,1.2,17.7,7.4,2,4.8-.4,10.1-3,14.6-13,21.9-34.1,38.8-58.2,47.5a375.394,375.394,0,0,0,27.6,28.8c22.6,21.3,48.4,39.2,75.7,54.8a218.509,218.509,0,0,1,35-25.4c2-1.2,4.3-2.4,6.5-1.7,4.4,1.2,4.4,7.5,3.2,11.9-2.3,8.3-6.3,21.6-12.1,32.4C250.5,568.2,286.9,582.2,322.6,595.1Z" fill="url(#linear-gradient-13)"/>
        <path id="Path_2658" d="M24.8,44.5A2929.619,2929.619,0,0,1,239.7,441C157.9,315.6,86.2,181,24.8,44.5Z" fill="#486107"/>
      </g>
      <g id="Group_1092" transform="translate(0 502.919)">
        <path id="Path_2659" d="M0,180.5c2.9,2.6,20,.2,23.7.2,21.7.2,43.5.3,65.2.4l367.6,2.4,183.2,1.2,69.9.5c32.2.2,63.6-5.1,95.5,2.9-43.7,20.8-90.3,32.5-132,57.6-10.7,6.4-119.7,73.8-118.7,77.3a406.686,406.686,0,0,0-24.3-60.7c-3.1-6.2-7.7-13.2-14.6-13-8.2.2-12.1,9.8-13.6,17.7-4.4,23.6-6,54.5,1.4,79.4-44.1,15.7-91.4,21.6-138.5,19.1A227.274,227.274,0,0,0,339.6,270c-3.8-7.2-9.7-15.3-17.9-14.5-6.1.6-10.5,6.1-13.7,11.4-15.8,26.3-21.7,58.1-17.3,88.5a465.512,465.512,0,0,1-46.2-12.9c-35.3-11.9-68.9-28.9-100.9-49a262.8,262.8,0,0,0,7.1-51.5c.1-2.7,0-5.9-1.9-7.9-3.8-4-10.4-.4-14.4,3.4-7.5,7.1-19.3,18.8-27.4,31.1C69.3,241.6,33.8,211,0,180.5Z" fill="url(#linear-gradient-14)"/>
        <path id="Path_2660" d="M0,180.5c3.8-3.3,25.8.2,30.5.2,27.5.2,54.9.3,82.4.5l368.8,2.4q87.15.6,174.3,1.1c51,.3,104.7-3,155.1,4.5-44.9-22.6-93.4-38-136.3-64.4C664.1,118.2,554.9,48.9,556,45.3a383.444,383.444,0,0,1-25.1,60.3c-3.2,6.2-7.8,13-14.7,12.9-8.2-.3-12-10-13.4-17.9-4.1-23.6-5.3-54.5,2.4-79.4C461.3,5,414.1-1.5,367,.3a227.5,227.5,0,0,1-26.3,95.1c-3.8,7.2-10,15.2-18,14.3-6.1-.7-10.4-6.3-13.6-11.6-15.5-26.4-21-58.3-16.1-88.7a464.2,464.2,0,0,0-46.3,12.3c-35.5,11.4-69.2,28.1-101.5,47.7a255.486,255.486,0,0,1,6.3,51.6c.1,2.7,0,5.9-2,7.8-3.8,3.9-10.4.2-14.4-3.6-7.4-7.3-19-19.1-27-31.5C70.1,120.4,34.2,150.5,0,180.5Z" fill="url(#linear-gradient-15)"/>
        <path id="Path_2661" d="M751.3,187A3518.5,3518.5,0,0,1,210,182.7C389.2,169.6,572.2,172.4,751.3,187Z" fill="#587709"/>
      </g>
    </g>
  </g>
</svg>
